<?xml version="1.0" standalone="no"?>
<!DOCTYPE svg PUBLIC "-//W3C//DTD SVG 20010904//EN"
 "http://www.w3.org/TR/2001/REC-SVG-20010904/DTD/svg10.dtd">
<svg version="1.0" xmlns="http://www.w3.org/2000/svg"
 width="1024.000000pt" height="1024.000000pt" viewBox="0 0 1024.000000 1024.000000"
 preserveAspectRatio="xMidYMid meet">

<g transform="translate(0.000000,1024.000000) scale(0.100000,-0.100000)"
fill="#000000" stroke="none">
<path d="M4925 10184 c-608 -32 -1139 -144 -1665 -351 -867 -341 -1641 -935
-2202 -1687 -826 -1107 -1161 -2497 -932 -3871 283 -1702 1438 -3155 3044
-3830 74 -31 227 -88 340 -125 417 -140 802 -217 1250 -251 227 -17 727 -6
945 20 922 113 1748 445 2475 997 1045 791 1746 1965 1944 3254 208 1354 -129
2717 -942 3806 -150 202 -288 361 -482 554 -410 411 -832 713 -1345 965 -576
283 -1187 453 -1815 504 -141 12 -509 20 -615 15z m450 -114 c342 -19 615 -60
940 -140 1514 -373 2771 -1451 3378 -2897 473 -1126 508 -2427 95 -3578 -109
-303 -258 -617 -424 -893 -831 -1376 -2272 -2262 -3875 -2383 -204 -15 -726
-7 -909 15 -1005 119 -1874 491 -2650 1135 -165 136 -505 481 -643 651 -578
711 -944 1543 -1071 2431 -38 264 -49 428 -48 724 0 368 26 626 97 980 221
1095 819 2093 1686 2816 958 797 2189 1207 3424 1139z"/>
<path d="M1735 7568 c-3 -7 -4 -1075 -3 -2373 l3 -2360 298 -3 297 -2 0 924 0
924 443 5 c475 5 587 14 806 63 338 76 606 216 811 424 175 178 299 428 357
725 25 130 25 453 -1 590 -90 484 -375 809 -845 965 -207 69 -398 102 -691
120 -255 15 -1469 13 -1475 -2z m1547 -524 c481 -62 741 -254 840 -618 19 -70
22 -107 22 -276 0 -169 -3 -207 -22 -285 -90 -358 -343 -555 -814 -634 -176
-30 -363 -41 -690 -41 l-288 0 0 935 0 935 414 0 c321 0 442 -4 538 -16z"/>
<path d="M5755 7568 c-3 -7 -4 -1075 -3 -2373 l3 -2360 298 -3 297 -2 0 924 0
924 443 5 c474 5 586 14 806 63 489 108 843 360 1030 733 97 192 148 403 158
647 14 386 -76 691 -281 940 -253 310 -650 467 -1276 504 -255 15 -1469 13
-1475 -2z m1547 -524 c307 -40 521 -132 663 -286 154 -167 213 -359 202 -662
-15 -447 -206 -692 -639 -822 -199 -59 -459 -84 -890 -84 l-288 0 0 935 0 935
414 0 c321 0 442 -4 538 -16z"/>
<path d="M7825 3926 c-58 -26 -79 -60 -83 -134 -3 -57 0 -72 20 -102 53 -79
157 -90 223 -25 37 38 52 97 41 159 -17 88 -117 139 -201 102z"/>
<path d="M7760 2610 l0 -760 125 0 125 0 0 760 0 760 -125 0 -125 0 0 -760z"/>
</g>
</svg>
